<svg width="1567" height="400" viewBox="0 0 1567 400" fill="none" xmlns="http://www.w3.org/2000/svg">
<mask id="mask0_1097_1219" style="mask-type:alpha" maskUnits="userSpaceOnUse" x="134" y="0" width="187" height="235">
<path d="M227.173 0C191.654 0 160.798 19.9516 145.191 49.2571C164.059 61.1371 178.528 79.2431 185.645 100.656V96.0427H185.684C186.472 73.8986 204.739 56.1848 227.173 56.1848C249.607 56.1848 267.875 73.8986 268.663 96.0427H268.701V137.571H268.687C268.368 160.132 249.91 178.326 227.173 178.326C204.437 178.326 185.978 160.132 185.66 137.571H185.645L185.493 126.554L134.181 127.058L134.346 141.683C134.346 192.95 175.906 234.51 227.173 234.51C278.44 234.51 320 192.95 320 141.683V92.827C320 41.5601 278.44 0 227.173 0Z" fill="#38B1E0"/>
</mask>
<g mask="url(#mask0_1097_1219)">
<path d="M227.173 0C191.654 0 160.798 19.9516 145.191 49.2571C164.059 61.1371 178.528 79.2431 185.645 100.656V96.0427H185.684C186.472 73.8986 204.739 56.1848 227.173 56.1848C249.607 56.1848 267.875 73.8986 268.663 96.0427H268.701V137.571H268.687C268.368 160.132 249.91 178.326 227.173 178.326C204.437 178.326 185.978 160.132 185.66 137.571H185.645L185.493 126.554L134.181 127.058L134.346 141.683C134.346 192.95 175.906 234.51 227.173 234.51C278.44 234.51 320 192.95 320 141.683V92.827C320 41.5601 278.44 0 227.173 0Z" fill="#38B1E0"/>
<g filter="url(#filter0_f_1097_1219)">
<circle cx="157.661" cy="42.5401" r="33.4801" fill="#2357D3"/>
</g>
<g filter="url(#filter1_f_1097_1219)">
<ellipse cx="304.864" cy="61.9208" rx="49.8518" ry="55.3339" fill="#84DBE2"/>
</g>
</g>
<mask id="mask1_1097_1219" style="mask-type:alpha" maskUnits="userSpaceOnUse" x="0" y="40" width="186" height="235">
<path d="M92.827 274.618C128.346 274.618 159.202 254.666 174.809 225.361C155.942 213.481 141.472 195.375 134.355 173.961V178.575H134.317C133.529 200.719 115.261 218.433 92.827 218.433C70.3928 218.433 52.1253 200.719 51.3373 178.575H51.2991L51.2991 134.8H51.4089C52.875 113.291 70.8509 96.2922 92.827 96.2922C114.803 96.2922 132.779 113.291 134.245 134.8H134.355L134.546 148.064H185.654V132.934C185.654 81.6675 144.094 40.1074 92.827 40.1074C41.5601 40.1074 0 81.6675 0 132.934L0 181.791C0 233.058 41.5601 274.618 92.827 274.618Z" fill="#9CD0F2"/>
</mask>
<g mask="url(#mask1_1097_1219)">
<path d="M92.827 274.618C128.346 274.618 159.202 254.666 174.809 225.361C155.942 213.481 141.472 195.375 134.355 173.961V178.575H134.317C133.529 200.719 115.261 218.433 92.827 218.433C70.3928 218.433 52.1253 200.719 51.3373 178.575H51.2991L51.2991 134.8H51.4089C52.875 113.291 70.8509 96.2922 92.827 96.2922C114.803 96.2922 132.779 113.291 134.245 134.8H134.355L134.546 148.064H185.654V132.934C185.654 81.6675 144.094 40.1074 92.827 40.1074C41.5601 40.1074 0 81.6675 0 132.934L0 181.791C0 233.058 41.5601 274.618 92.827 274.618Z" fill="#A1D3F5"/>
<g filter="url(#filter2_f_1097_1219)">
<circle cx="156.265" cy="216.303" r="42.5409" fill="#2D5EE6"/>
</g>
<g filter="url(#filter3_f_1097_1219)">
<circle cx="156.265" cy="131.303" r="42.5409" fill="#38B1E0"/>
</g>
<g filter="url(#filter4_f_1097_1219)">
<circle cx="161.265" cy="151.303" r="42.5409" fill="#38B1E0"/>
</g>
<g filter="url(#filter5_f_1097_1219)">
<circle cx="30.847" cy="53.015" r="66.9798" fill="white"/>
</g>
<g filter="url(#filter6_f_1097_1219)">
<circle cx="66.9798" cy="253.327" r="66.9798" fill="#7FB1F9"/>
</g>
</g>
<path d="M433.113 158.647H490.504V194H396.383V33.3043H433.113V158.647ZM602.667 179.767C590.882 191.398 576.496 197.214 559.508 197.214C542.521 197.214 528.134 191.398 516.35 179.767C504.566 167.983 498.674 153.597 498.674 136.609C498.674 119.621 504.566 105.311 516.35 93.68C528.134 81.8957 542.521 76.0035 559.508 76.0035C576.496 76.0035 590.882 81.8957 602.667 93.68C614.451 105.311 620.343 119.621 620.343 136.609C620.343 153.597 614.451 167.983 602.667 179.767ZM540.684 156.122C545.734 161.172 552.009 163.697 559.508 163.697C567.008 163.697 573.282 161.172 578.333 156.122C583.383 151.071 585.908 144.567 585.908 136.609C585.908 128.65 583.383 122.146 578.333 117.096C573.282 112.045 567.008 109.52 559.508 109.52C552.009 109.52 545.734 112.045 540.684 117.096C535.634 122.146 533.108 128.65 533.108 136.609C533.108 144.567 535.634 151.071 540.684 156.122ZM694.916 197.214C677.469 197.214 662.93 191.398 651.299 179.767C639.82 168.136 634.081 153.75 634.081 136.609C634.081 119.468 639.82 105.082 651.299 93.4504C662.93 81.8191 677.469 76.0035 694.916 76.0035C705.935 76.0035 716.036 78.6817 725.219 84.0383C734.554 89.3948 741.747 96.5113 746.798 105.388L716.725 122.835C712.593 114.264 705.17 109.979 694.457 109.979C686.958 109.979 680.759 112.504 675.862 117.555C670.965 122.452 668.516 128.803 668.516 136.609C668.516 144.414 670.965 150.842 675.862 155.892C680.759 160.79 686.958 163.238 694.457 163.238C705.323 163.238 712.746 158.953 716.725 150.383L746.798 167.6C741.747 176.63 734.631 183.823 725.448 189.179C716.266 194.536 706.088 197.214 694.916 197.214ZM835.926 79.2174H870.361V194H835.926V183.21C829.039 192.546 818.097 197.214 803.099 197.214C790.855 197.214 780.601 193.005 772.337 184.588C764.226 176.17 760.17 164.539 760.17 149.694V79.2174H794.605V144.643C794.605 151.377 796.441 156.581 800.114 160.254C803.94 163.774 808.761 165.534 814.577 165.534C821.158 165.534 826.361 163.544 830.187 159.565C834.013 155.586 835.926 149.694 835.926 141.889V79.2174ZM1024.17 76.0035C1037.33 76.0035 1047.89 80.3652 1055.85 89.0887C1063.81 97.6591 1067.79 109.137 1067.79 123.523V194H1033.35V126.508C1033.35 120.692 1031.9 116.101 1028.99 112.734C1026.24 109.367 1022.18 107.683 1016.83 107.683C1011.16 107.683 1006.72 109.597 1003.51 113.423C1000.45 117.249 998.92 122.529 998.92 129.263V194H964.485V126.508C964.485 120.692 963.031 116.101 960.123 112.734C957.368 109.367 953.313 107.683 947.956 107.683C942.293 107.683 937.855 109.597 934.641 113.423C931.58 117.249 930.05 122.529 930.05 129.263V194H895.615V79.2174H930.05V89.7774C936.325 80.5948 946.579 76.0035 960.812 76.0035C974.126 76.0035 984.151 81.0539 990.885 91.1548C997.925 81.0539 1009.02 76.0035 1024.17 76.0035Z" fill="white"/>
<path d="M1186.6 158.647H1243.99V194H1149.87V33.3043H1186.6V158.647ZM1290.7 63.1478C1286.72 67.1269 1281.9 69.1165 1276.24 69.1165C1270.57 69.1165 1265.68 67.1269 1261.54 63.1478C1257.56 59.0156 1255.58 54.1183 1255.58 48.4557C1255.58 42.793 1257.56 37.9722 1261.54 33.993C1265.68 29.8609 1270.57 27.7948 1276.24 27.7948C1281.9 27.7948 1286.72 29.8609 1290.7 33.993C1294.83 37.9722 1296.9 42.793 1296.9 48.4557C1296.9 54.1183 1294.83 59.0156 1290.7 63.1478ZM1259.02 194V79.2174H1293.45V194H1259.02ZM1385.91 76.0035C1398.16 76.0035 1408.34 80.2122 1416.45 88.6296C1424.71 97.047 1428.84 108.678 1428.84 123.523V194H1394.41V128.574C1394.41 121.84 1392.5 116.713 1388.67 113.193C1385 109.52 1380.25 107.683 1374.44 107.683C1367.86 107.683 1362.65 109.673 1358.83 113.652C1355 117.631 1353.09 123.523 1353.09 131.329V194H1318.65V79.2174H1353.09V90.007C1359.97 80.6713 1370.92 76.0035 1385.91 76.0035ZM1562.68 194H1523.66L1486.93 143.266V194H1452.49V33.3043H1486.93V129.492L1521.36 79.2174H1561.53L1519.75 136.609L1562.68 194Z" fill="#ABE6EA"/>
<path d="M457.646 310.659H446.307C446.257 308.189 445.8 306.015 444.936 304.137C444.071 302.235 442.885 300.642 441.378 299.357C439.896 298.048 438.155 297.06 436.154 296.393C434.153 295.726 431.991 295.392 429.669 295.392C425.198 295.392 420.998 296.529 417.07 298.801C413.142 301.074 409.795 304.384 407.028 308.732C404.261 313.08 402.359 318.379 401.322 324.629C400.309 330.706 400.432 335.807 401.692 339.933C402.952 344.058 405.077 347.183 408.066 349.308C411.079 351.408 414.699 352.458 418.923 352.458C421.393 352.458 423.802 352.136 426.149 351.494C428.52 350.827 430.719 349.851 432.745 348.567C434.77 347.282 436.561 345.714 438.118 343.861C439.699 341.983 440.934 339.834 441.823 337.413H453.31C452.075 341.168 450.333 344.602 448.085 347.714C445.837 350.827 443.182 353.52 440.119 355.793C437.055 358.065 433.696 359.819 430.039 361.054C426.383 362.29 422.517 362.907 418.441 362.907C411.746 362.907 406.04 361.314 401.322 358.127C396.628 354.916 393.256 350.345 391.205 344.417C389.18 338.488 388.834 331.422 390.168 323.221C391.527 315.242 394.121 308.399 397.95 302.692C401.803 296.961 406.497 292.576 412.031 289.538C417.589 286.474 423.592 284.943 430.039 284.943C434.116 284.943 437.846 285.523 441.23 286.684C444.615 287.821 447.53 289.501 449.975 291.724C452.446 293.922 454.348 296.615 455.682 299.802C457.016 302.964 457.67 306.583 457.646 310.659ZM486.28 363.018C480.87 363.018 476.349 361.783 472.718 359.313C469.087 356.818 466.53 353.335 465.048 348.863C463.59 344.367 463.343 339.142 464.306 333.189C465.245 327.359 467.135 322.27 469.976 317.922C472.841 313.574 476.423 310.202 480.722 307.806C485.045 305.41 489.85 304.212 495.136 304.212C500.547 304.212 505.055 305.459 508.662 307.954C512.293 310.449 514.85 313.945 516.332 318.441C517.814 322.937 518.074 328.174 517.11 334.152C516.172 339.933 514.257 344.997 511.367 349.345C508.501 353.668 504.919 357.028 500.621 359.424C496.322 361.82 491.542 363.018 486.28 363.018ZM486.91 353.717C490.467 353.717 493.568 352.779 496.211 350.901C498.879 349.024 501.053 346.529 502.733 343.416C504.413 340.303 505.561 336.894 506.179 333.189C506.747 329.607 506.735 326.334 506.142 323.369C505.574 320.38 504.339 317.984 502.436 316.18C500.534 314.377 497.891 313.475 494.506 313.475C490.949 313.475 487.824 314.426 485.131 316.329C482.464 318.206 480.29 320.714 478.61 323.851C476.955 326.988 475.831 330.41 475.238 334.115C474.67 337.672 474.67 340.946 475.238 343.935C475.806 346.899 477.041 349.271 478.943 351.049C480.845 352.828 483.501 353.717 486.91 353.717ZM541.595 328.075L536.036 361.87H524.957L534.443 304.953H545.078L543.521 314.216H544.225C546.029 311.178 548.487 308.757 551.6 306.954C554.737 305.126 558.442 304.212 562.716 304.212C566.57 304.212 569.806 305.027 572.425 306.657C575.068 308.263 576.933 310.659 578.02 313.846C579.132 317.033 579.305 320.973 578.539 325.667L572.462 361.87H561.382L567.2 327.001C567.867 322.875 567.323 319.651 565.569 317.329C563.84 314.982 561.086 313.809 557.306 313.809C554.737 313.809 552.353 314.365 550.154 315.476C547.98 316.588 546.14 318.218 544.633 320.368C543.151 322.492 542.138 325.061 541.595 328.075ZM603.959 328.075L598.4 361.87H587.321L596.807 304.953H607.442L605.886 314.216H606.59C608.393 311.178 610.851 308.757 613.964 306.954C617.101 305.126 620.807 304.212 625.08 304.212C628.934 304.212 632.17 305.027 634.789 306.657C637.432 308.263 639.297 310.659 640.384 313.846C641.496 317.033 641.669 320.973 640.903 325.667L634.826 361.87H623.746L629.564 327.001C630.231 322.875 629.687 319.651 627.933 317.329C626.204 314.982 623.45 313.809 619.67 313.809C617.101 313.809 614.717 314.365 612.518 315.476C610.345 316.588 608.504 318.218 606.997 320.368C605.515 322.492 604.502 325.061 603.959 328.075ZM674.03 363.018C668.447 363.018 663.828 361.82 660.172 359.424C656.54 357.003 653.996 353.606 652.538 349.234C651.081 344.837 650.846 339.686 651.834 333.782C652.798 327.952 654.737 322.813 657.652 318.367C660.567 313.92 664.198 310.449 668.546 307.954C672.919 305.459 677.748 304.212 683.035 304.212C686.246 304.212 689.272 304.743 692.113 305.805C694.979 306.867 697.412 308.535 699.413 310.807C701.414 313.08 702.798 316.032 703.563 319.664C704.354 323.27 704.329 327.655 703.489 332.818L702.859 336.746H657.578L658.875 328.446H693.262C693.781 325.531 693.645 322.949 692.854 320.701C692.064 318.428 690.705 316.637 688.778 315.328C686.876 314.019 684.48 313.364 681.59 313.364C678.625 313.364 675.858 314.142 673.289 315.699C670.72 317.255 668.571 319.244 666.842 321.665C665.137 324.061 664.062 326.531 663.618 329.076L662.321 336.672C661.679 340.822 661.79 344.157 662.654 346.677C663.544 349.197 665.1 351.025 667.323 352.161C669.547 353.297 672.326 353.866 675.661 353.866C677.81 353.866 679.799 353.569 681.627 352.976C683.479 352.359 685.122 351.457 686.555 350.271C687.988 349.061 689.186 347.554 690.149 345.751L700.303 347.64C698.944 350.728 696.992 353.433 694.448 355.755C691.903 358.053 688.902 359.844 685.443 361.129C682.01 362.388 678.205 363.018 674.03 363.018ZM734.922 363.018C729.388 363.018 724.855 361.771 721.322 359.276C717.79 356.756 715.332 353.285 713.948 348.863C712.565 344.441 712.342 339.377 713.281 333.671C714.22 327.89 716.134 322.789 719.025 318.367C721.94 313.92 725.584 310.449 729.956 307.954C734.353 305.459 739.232 304.212 744.593 304.212C748.916 304.212 752.634 305.014 755.747 306.62C758.859 308.201 761.218 310.424 762.824 313.29C764.43 316.156 765.122 319.503 764.899 323.332H754.116C753.943 320.664 752.955 318.367 751.152 316.44C749.348 314.513 746.693 313.549 743.185 313.549C740.097 313.549 737.256 314.365 734.662 315.995C732.068 317.601 729.882 319.898 728.103 322.887C726.325 325.852 725.114 329.36 724.472 333.411C723.78 337.561 723.817 341.143 724.583 344.157C725.349 347.171 726.757 349.505 728.807 351.161C730.858 352.816 733.439 353.643 736.552 353.643C738.676 353.643 740.653 353.26 742.481 352.495C744.334 351.704 745.964 350.58 747.372 349.123C748.805 347.665 749.917 345.911 750.707 343.861H761.527C760.465 347.542 758.686 350.827 756.191 353.717C753.721 356.608 750.682 358.88 747.076 360.536C743.469 362.191 739.418 363.018 734.922 363.018ZM806.355 304.953L804.91 313.846H773.82L775.266 304.953H806.355ZM785.826 291.316H796.906L787.938 345.158C787.593 347.307 787.654 348.925 788.124 350.012C788.593 351.074 789.309 351.803 790.273 352.198C791.261 352.569 792.36 352.754 793.571 352.754C794.46 352.754 795.238 352.692 795.905 352.569C796.572 352.445 797.103 352.346 797.499 352.272L798.092 361.425C797.35 361.672 796.35 361.919 795.09 362.166C793.855 362.438 792.348 362.586 790.569 362.611C787.654 362.66 785.023 362.141 782.677 361.054C780.33 359.943 778.576 358.263 777.415 356.015C776.254 353.742 775.97 350.889 776.562 347.455L785.826 291.316ZM817.351 362.574C815.276 362.574 813.547 361.857 812.163 360.424C810.805 358.992 810.138 357.238 810.162 355.163C810.187 353.112 810.953 351.395 812.46 350.012C813.991 348.604 815.77 347.9 817.796 347.9C819.821 347.9 821.551 348.616 822.984 350.049C824.416 351.482 825.083 353.186 824.984 355.163C824.91 356.546 824.515 357.806 823.799 358.942C823.107 360.054 822.193 360.943 821.057 361.61C819.92 362.253 818.685 362.574 817.351 362.574ZM937.401 310.659H926.062C926.013 308.189 925.556 306.015 924.691 304.137C923.827 302.235 922.641 300.642 921.134 299.357C919.652 298.048 917.91 297.06 915.909 296.393C913.908 295.726 911.746 295.392 909.424 295.392C904.953 295.392 900.753 296.529 896.826 298.801C892.898 301.074 889.55 304.384 886.784 308.732C884.017 313.08 882.115 318.379 881.077 324.629C880.064 330.706 880.188 335.807 881.448 339.933C882.707 344.058 884.832 347.183 887.821 349.308C890.835 351.408 894.454 352.458 898.678 352.458C901.149 352.458 903.557 352.136 905.904 351.494C908.276 350.827 910.474 349.851 912.5 348.567C914.526 347.282 916.317 345.714 917.873 343.861C919.454 341.983 920.689 339.834 921.579 337.413H933.066C931.83 341.168 930.089 344.602 927.841 347.714C925.593 350.827 922.937 353.52 919.874 355.793C916.811 358.065 913.451 359.819 909.795 361.054C906.139 362.29 902.273 362.907 898.197 362.907C891.502 362.907 885.795 361.314 881.077 358.127C876.383 354.916 873.011 350.345 870.961 344.417C868.935 338.488 868.589 331.422 869.923 323.221C871.282 315.242 873.876 308.399 877.705 302.692C881.559 296.961 886.252 292.576 891.786 289.538C897.344 286.474 903.347 284.943 909.795 284.943C913.871 284.943 917.601 285.523 920.986 286.684C924.37 287.821 927.285 289.501 929.731 291.724C932.201 293.922 934.103 296.615 935.437 299.802C936.771 302.964 937.426 306.583 937.401 310.659ZM966.036 363.018C960.626 363.018 956.105 361.783 952.473 359.313C948.842 356.818 946.285 353.335 944.803 348.863C943.345 344.367 943.098 339.142 944.062 333.189C945.001 327.359 946.89 322.27 949.731 317.922C952.597 313.574 956.179 310.202 960.477 307.806C964.8 305.41 969.605 304.212 974.892 304.212C980.302 304.212 984.81 305.459 988.417 307.954C992.049 310.449 994.605 313.945 996.088 318.441C997.57 322.937 997.829 328.174 996.866 334.152C995.927 339.933 994.012 344.997 991.122 349.345C988.257 353.668 984.674 357.028 980.376 359.424C976.078 361.82 971.298 363.018 966.036 363.018ZM966.666 353.717C970.223 353.717 973.323 352.779 975.966 350.901C978.634 349.024 980.808 346.529 982.488 343.416C984.168 340.303 985.317 336.894 985.934 333.189C986.503 329.607 986.49 326.334 985.897 323.369C985.329 320.38 984.094 317.984 982.192 316.18C980.29 314.377 977.646 313.475 974.262 313.475C970.705 313.475 967.58 314.426 964.887 316.329C962.219 318.206 960.045 320.714 958.365 323.851C956.71 326.988 955.586 330.41 954.993 334.115C954.425 337.672 954.425 340.946 954.993 343.935C955.561 346.899 956.797 349.271 958.699 351.049C960.601 352.828 963.257 353.717 966.666 353.717ZM1060.92 304.953L1030.79 361.87H1018.93L1007.74 304.953H1019.19L1026.31 348.752H1026.9L1048.58 304.953H1060.92ZM1084.29 363.018C1078.71 363.018 1074.09 361.82 1070.43 359.424C1066.8 357.003 1064.25 353.606 1062.8 349.234C1061.34 344.837 1061.1 339.686 1062.09 333.782C1063.06 327.952 1065 322.813 1067.91 318.367C1070.83 313.92 1074.46 310.449 1078.8 307.954C1083.18 305.459 1088.01 304.212 1093.29 304.212C1096.5 304.212 1099.53 304.743 1102.37 305.805C1105.24 306.867 1107.67 308.535 1109.67 310.807C1111.67 313.08 1113.06 316.032 1113.82 319.664C1114.61 323.27 1114.59 327.655 1113.75 332.818L1113.12 336.746H1067.84L1069.13 328.446H1103.52C1104.04 325.531 1103.9 322.949 1103.11 320.701C1102.32 318.428 1100.96 316.637 1099.04 315.328C1097.13 314.019 1094.74 313.364 1091.85 313.364C1088.88 313.364 1086.12 314.142 1083.55 315.699C1080.98 317.255 1078.83 319.244 1077.1 321.665C1075.4 324.061 1074.32 326.531 1073.88 329.076L1072.58 336.672C1071.94 340.822 1072.05 344.157 1072.91 346.677C1073.8 349.197 1075.36 351.025 1077.58 352.161C1079.8 353.297 1082.58 353.866 1085.92 353.866C1088.07 353.866 1090.06 353.569 1091.88 352.976C1093.74 352.359 1095.38 351.457 1096.81 350.271C1098.25 349.061 1099.44 347.554 1100.41 345.751L1110.56 347.64C1109.2 350.728 1107.25 353.433 1104.71 355.755C1102.16 358.053 1099.16 359.844 1095.7 361.129C1092.27 362.388 1088.46 363.018 1084.29 363.018ZM1121.35 361.87L1130.84 304.953H1141.55L1140.03 313.994H1140.62C1142.15 310.931 1144.39 308.522 1147.33 306.768C1150.27 304.99 1153.41 304.1 1156.74 304.1C1157.46 304.1 1158.27 304.125 1159.19 304.174C1160.1 304.199 1160.84 304.261 1161.41 304.36L1159.63 314.958C1159.21 314.834 1158.45 314.698 1157.33 314.55C1156.22 314.377 1155.07 314.291 1153.89 314.291C1151.29 314.291 1148.89 314.846 1146.66 315.958C1144.44 317.045 1142.57 318.564 1141.07 320.516C1139.56 322.443 1138.58 324.641 1138.14 327.112L1132.43 361.87H1121.35ZM1163.31 362.574C1161.23 362.574 1159.5 361.857 1158.12 360.424C1156.76 358.992 1156.1 357.238 1156.12 355.163C1156.14 353.112 1156.91 351.395 1158.42 350.012C1159.95 348.604 1161.73 347.9 1163.75 347.9C1165.78 347.9 1167.51 348.616 1168.94 350.049C1170.37 351.482 1171.04 353.186 1170.94 355.163C1170.87 356.546 1170.47 357.806 1169.76 358.942C1169.06 360.054 1168.15 360.943 1167.01 361.61C1165.88 362.253 1164.64 362.574 1163.31 362.574ZM1283.36 310.659H1272.02C1271.97 308.189 1271.51 306.015 1270.65 304.137C1269.78 302.235 1268.6 300.642 1267.09 299.357C1265.61 298.048 1263.87 297.06 1261.87 296.393C1259.87 295.726 1257.7 295.392 1255.38 295.392C1250.91 295.392 1246.71 296.529 1242.78 298.801C1238.86 301.074 1235.51 304.384 1232.74 308.732C1229.97 313.08 1228.07 318.379 1227.03 324.629C1226.02 330.706 1226.15 335.807 1227.41 339.933C1228.67 344.058 1230.79 347.183 1233.78 349.308C1236.79 351.408 1240.41 352.458 1244.64 352.458C1247.11 352.458 1249.52 352.136 1251.86 351.494C1254.23 350.827 1256.43 349.851 1258.46 348.567C1260.48 347.282 1262.27 345.714 1263.83 343.861C1265.41 341.983 1266.65 339.834 1267.54 337.413H1279.02C1277.79 341.168 1276.05 344.602 1273.8 347.714C1271.55 350.827 1268.9 353.52 1265.83 355.793C1262.77 358.065 1259.41 359.819 1255.75 361.054C1252.1 362.29 1248.23 362.907 1244.15 362.907C1237.46 362.907 1231.75 361.314 1227.03 358.127C1222.34 354.916 1218.97 350.345 1216.92 344.417C1214.89 338.488 1214.55 331.422 1215.88 323.221C1217.24 315.242 1219.83 308.399 1223.66 302.692C1227.52 296.961 1232.21 292.576 1237.74 289.538C1243.3 286.474 1249.31 284.943 1255.75 284.943C1259.83 284.943 1263.56 285.523 1266.94 286.684C1270.33 287.821 1273.24 289.501 1275.69 291.724C1278.16 293.922 1280.06 296.615 1281.4 299.802C1282.73 302.964 1283.38 306.583 1283.36 310.659ZM1304.17 363.13C1300.57 363.13 1297.42 362.463 1294.73 361.129C1292.03 359.77 1290.04 357.806 1288.76 355.237C1287.48 352.668 1287.14 349.518 1287.76 345.788C1288.3 342.576 1289.37 339.933 1290.95 337.858C1292.55 335.783 1294.5 334.14 1296.8 332.929C1299.1 331.694 1301.59 330.768 1304.29 330.15C1306.98 329.533 1309.7 329.076 1312.44 328.779C1315.9 328.384 1318.7 328.05 1320.85 327.779C1323.02 327.507 1324.65 327.087 1325.74 326.519C1326.83 325.926 1327.48 324.963 1327.7 323.629V323.369C1328.22 320.158 1327.75 317.663 1326.3 315.884C1324.86 314.081 1322.37 313.179 1318.81 313.179C1315.11 313.179 1311.99 313.994 1309.47 315.625C1306.98 317.255 1305.14 319.083 1303.95 321.109L1294.02 318.737C1295.8 315.279 1298.06 312.487 1300.8 310.363C1303.57 308.214 1306.6 306.657 1309.88 305.694C1313.17 304.706 1316.53 304.212 1319.96 304.212C1322.23 304.212 1324.59 304.483 1327.04 305.027C1329.48 305.546 1331.71 306.509 1333.71 307.917C1335.73 309.325 1337.24 311.339 1338.23 313.957C1339.22 316.551 1339.37 319.923 1338.67 324.073L1332.41 361.87H1321.59L1322.92 354.088H1322.48C1321.54 355.521 1320.23 356.929 1318.55 358.312C1316.9 359.696 1314.87 360.844 1312.48 361.758C1310.08 362.672 1307.31 363.13 1304.17 363.13ZM1307.95 354.236C1311.04 354.236 1313.77 353.631 1316.14 352.421C1318.54 351.21 1320.48 349.629 1321.96 347.677C1323.44 345.701 1324.37 343.589 1324.74 341.341L1325.96 334.004C1325.49 334.399 1324.67 334.757 1323.48 335.079C1322.32 335.4 1321.01 335.684 1319.55 335.931C1318.1 336.178 1316.66 336.388 1315.25 336.561C1313.87 336.734 1312.72 336.894 1311.81 337.043C1309.63 337.314 1307.6 337.771 1305.69 338.414C1303.82 339.056 1302.25 339.982 1300.99 341.193C1299.73 342.379 1298.94 343.96 1298.62 345.936C1298.17 348.678 1298.83 350.753 1300.58 352.161C1302.36 353.545 1304.82 354.236 1307.95 354.236ZM1347.17 361.87L1356.65 304.953H1367.36L1365.84 313.994H1366.44C1367.97 310.931 1370.2 308.522 1373.14 306.768C1376.08 304.99 1379.22 304.1 1382.56 304.1C1383.27 304.1 1384.09 304.125 1385 304.174C1385.92 304.199 1386.66 304.261 1387.23 304.36L1385.45 314.958C1385.03 314.834 1384.26 314.698 1383.15 314.55C1382.04 314.377 1380.89 314.291 1379.7 314.291C1377.11 314.291 1374.7 314.846 1372.48 315.958C1370.25 317.045 1368.39 318.564 1366.88 320.516C1365.37 322.443 1364.4 324.641 1363.95 327.112L1358.25 361.87H1347.17ZM1409.76 363.018C1404.18 363.018 1399.56 361.82 1395.91 359.424C1392.27 357.003 1389.73 353.606 1388.27 349.234C1386.81 344.837 1386.58 339.686 1387.57 333.782C1388.53 327.952 1390.47 322.813 1393.39 318.367C1396.3 313.92 1399.93 310.449 1404.28 307.954C1408.65 305.459 1413.48 304.212 1418.77 304.212C1421.98 304.212 1425.01 304.743 1427.85 305.805C1430.71 306.867 1433.15 308.535 1435.15 310.807C1437.15 313.08 1438.53 316.032 1439.3 319.664C1440.09 323.27 1440.06 327.655 1439.22 332.818L1438.59 336.746H1393.31L1394.61 328.446H1429C1429.51 325.531 1429.38 322.949 1428.59 320.701C1427.8 318.428 1426.44 316.637 1424.51 315.328C1422.61 314.019 1420.21 313.364 1417.32 313.364C1414.36 313.364 1411.59 314.142 1409.02 315.699C1406.45 317.255 1404.3 319.244 1402.58 321.665C1400.87 324.061 1399.8 326.531 1399.35 329.076L1398.05 336.672C1397.41 340.822 1397.52 344.157 1398.39 346.677C1399.28 349.197 1400.83 351.025 1403.06 352.161C1405.28 353.297 1408.06 353.866 1411.39 353.866C1413.54 353.866 1415.53 353.569 1417.36 352.976C1419.21 352.359 1420.86 351.457 1422.29 350.271C1423.72 349.061 1424.92 347.554 1425.88 345.751L1436.04 347.64C1434.68 350.728 1432.73 353.433 1430.18 355.755C1427.64 358.053 1424.64 359.844 1421.18 361.129C1417.74 362.388 1413.94 363.018 1409.76 363.018Z" fill="white"/>
<defs>
<filter id="filter0_f_1097_1219" x="49.1809" y="-65.9399" width="216.96" height="216.96" filterUnits="userSpaceOnUse" color-interpolation-filters="sRGB">
<feFlood flood-opacity="0" result="BackgroundImageFix"/>
<feBlend mode="normal" in="SourceGraphic" in2="BackgroundImageFix" result="shape"/>
<feGaussianBlur stdDeviation="37.5" result="effect1_foregroundBlur_1097_1219"/>
</filter>
<filter id="filter1_f_1097_1219" x="200.012" y="-48.4131" width="209.704" height="220.668" filterUnits="userSpaceOnUse" color-interpolation-filters="sRGB">
<feFlood flood-opacity="0" result="BackgroundImageFix"/>
<feBlend mode="normal" in="SourceGraphic" in2="BackgroundImageFix" result="shape"/>
<feGaussianBlur stdDeviation="27.5" result="effect1_foregroundBlur_1097_1219"/>
</filter>
<filter id="filter2_f_1097_1219" x="53.7244" y="113.762" width="205.082" height="205.082" filterUnits="userSpaceOnUse" color-interpolation-filters="sRGB">
<feFlood flood-opacity="0" result="BackgroundImageFix"/>
<feBlend mode="normal" in="SourceGraphic" in2="BackgroundImageFix" result="shape"/>
<feGaussianBlur stdDeviation="30" result="effect1_foregroundBlur_1097_1219"/>
</filter>
<filter id="filter3_f_1097_1219" x="53.7244" y="28.7622" width="205.082" height="205.082" filterUnits="userSpaceOnUse" color-interpolation-filters="sRGB">
<feFlood flood-opacity="0" result="BackgroundImageFix"/>
<feBlend mode="normal" in="SourceGraphic" in2="BackgroundImageFix" result="shape"/>
<feGaussianBlur stdDeviation="30" result="effect1_foregroundBlur_1097_1219"/>
</filter>
<filter id="filter4_f_1097_1219" x="58.7244" y="48.7622" width="205.082" height="205.082" filterUnits="userSpaceOnUse" color-interpolation-filters="sRGB">
<feFlood flood-opacity="0" result="BackgroundImageFix"/>
<feBlend mode="normal" in="SourceGraphic" in2="BackgroundImageFix" result="shape"/>
<feGaussianBlur stdDeviation="30" result="effect1_foregroundBlur_1097_1219"/>
</filter>
<filter id="filter5_f_1097_1219" x="-111.133" y="-88.9649" width="283.96" height="283.96" filterUnits="userSpaceOnUse" color-interpolation-filters="sRGB">
<feFlood flood-opacity="0" result="BackgroundImageFix"/>
<feBlend mode="normal" in="SourceGraphic" in2="BackgroundImageFix" result="shape"/>
<feGaussianBlur stdDeviation="37.5" result="effect1_foregroundBlur_1097_1219"/>
</filter>
<filter id="filter6_f_1097_1219" x="-75" y="111.348" width="283.96" height="283.96" filterUnits="userSpaceOnUse" color-interpolation-filters="sRGB">
<feFlood flood-opacity="0" result="BackgroundImageFix"/>
<feBlend mode="normal" in="SourceGraphic" in2="BackgroundImageFix" result="shape"/>
<feGaussianBlur stdDeviation="37.5" result="effect1_foregroundBlur_1097_1219"/>
</filter>
</defs>
</svg>
